<mxfile host="app.diagrams.net" modified="2022-06-03T08:39:27.315Z" agent="5.0 (Windows NT 10.0; Win64; x64) AppleWebKit/537.36 (KHTML, like Gecko) Chrome/101.0.4951.64 Safari/537.36 Edg/101.0.1210.53" etag="0DHFrKYzwSTR82Bwn2Un" version="18.2.1" type="github">
  <diagram id="mmZgRS-dIU9H71INqAcq" name="Page-1">
    <mxGraphModel dx="1435" dy="879" grid="1" gridSize="10" guides="1" tooltips="1" connect="1" arrows="1" fold="1" page="1" pageScale="1" pageWidth="827" pageHeight="1169" math="0" shadow="0">
      <root>
        <mxCell id="0" />
        <mxCell id="1" parent="0" />
        <mxCell id="v3nuLcGR7aZZQxwwEDKm-1" value="Book" style="ellipse;whiteSpace=wrap;html=1;" vertex="1" parent="1">
          <mxGeometry x="360" y="200" width="120" height="80" as="geometry" />
        </mxCell>
        <mxCell id="v3nuLcGR7aZZQxwwEDKm-12" style="edgeStyle=orthogonalEdgeStyle;rounded=0;orthogonalLoop=1;jettySize=auto;html=1;exitX=0.5;exitY=0;exitDx=0;exitDy=0;entryX=0.5;entryY=1;entryDx=0;entryDy=0;" edge="1" parent="1" source="v3nuLcGR7aZZQxwwEDKm-2" target="v3nuLcGR7aZZQxwwEDKm-1">
          <mxGeometry relative="1" as="geometry" />
        </mxCell>
        <mxCell id="v3nuLcGR7aZZQxwwEDKm-13" style="edgeStyle=orthogonalEdgeStyle;rounded=0;orthogonalLoop=1;jettySize=auto;html=1;exitX=0.5;exitY=0;exitDx=0;exitDy=0;entryX=0.5;entryY=1;entryDx=0;entryDy=0;" edge="1" parent="1" source="v3nuLcGR7aZZQxwwEDKm-2" target="v3nuLcGR7aZZQxwwEDKm-6">
          <mxGeometry relative="1" as="geometry" />
        </mxCell>
        <mxCell id="v3nuLcGR7aZZQxwwEDKm-2" value="admin" style="ellipse;whiteSpace=wrap;html=1;" vertex="1" parent="1">
          <mxGeometry x="430" y="400" width="120" height="80" as="geometry" />
        </mxCell>
        <mxCell id="v3nuLcGR7aZZQxwwEDKm-3" value="Book" style="ellipse;whiteSpace=wrap;html=1;" vertex="1" parent="1">
          <mxGeometry x="200" y="200" width="120" height="80" as="geometry" />
        </mxCell>
        <mxCell id="v3nuLcGR7aZZQxwwEDKm-15" style="edgeStyle=orthogonalEdgeStyle;rounded=0;orthogonalLoop=1;jettySize=auto;html=1;exitX=0.5;exitY=0;exitDx=0;exitDy=0;entryX=0.5;entryY=1;entryDx=0;entryDy=0;" edge="1" parent="1" source="v3nuLcGR7aZZQxwwEDKm-4" target="v3nuLcGR7aZZQxwwEDKm-3">
          <mxGeometry relative="1" as="geometry" />
        </mxCell>
        <mxCell id="v3nuLcGR7aZZQxwwEDKm-4" value="user" style="ellipse;whiteSpace=wrap;html=1;" vertex="1" parent="1">
          <mxGeometry x="200" y="400" width="120" height="80" as="geometry" />
        </mxCell>
        <mxCell id="v3nuLcGR7aZZQxwwEDKm-11" style="edgeStyle=orthogonalEdgeStyle;rounded=0;orthogonalLoop=1;jettySize=auto;html=1;exitX=1;exitY=0.5;exitDx=0;exitDy=0;entryX=0.5;entryY=1;entryDx=0;entryDy=0;" edge="1" parent="1" source="v3nuLcGR7aZZQxwwEDKm-5" target="v3nuLcGR7aZZQxwwEDKm-2">
          <mxGeometry relative="1" as="geometry" />
        </mxCell>
        <mxCell id="v3nuLcGR7aZZQxwwEDKm-5" value="Login" style="ellipse;whiteSpace=wrap;html=1;" vertex="1" parent="1">
          <mxGeometry x="320" y="580" width="120" height="80" as="geometry" />
        </mxCell>
        <mxCell id="v3nuLcGR7aZZQxwwEDKm-6" value="Users" style="ellipse;whiteSpace=wrap;html=1;" vertex="1" parent="1">
          <mxGeometry x="500" y="200" width="120" height="80" as="geometry" />
        </mxCell>
        <mxCell id="v3nuLcGR7aZZQxwwEDKm-10" style="edgeStyle=orthogonalEdgeStyle;rounded=0;orthogonalLoop=1;jettySize=auto;html=1;exitX=0;exitY=0.5;exitDx=0;exitDy=0;entryX=0.5;entryY=1;entryDx=0;entryDy=0;entryPerimeter=0;" edge="1" parent="1" source="v3nuLcGR7aZZQxwwEDKm-5" target="v3nuLcGR7aZZQxwwEDKm-4">
          <mxGeometry relative="1" as="geometry">
            <mxPoint x="250" y="490" as="targetPoint" />
          </mxGeometry>
        </mxCell>
        <mxCell id="v3nuLcGR7aZZQxwwEDKm-24" style="edgeStyle=orthogonalEdgeStyle;rounded=0;orthogonalLoop=1;jettySize=auto;html=1;exitX=1;exitY=0;exitDx=0;exitDy=0;entryX=0;entryY=0;entryDx=0;entryDy=0;" edge="1" parent="1" source="v3nuLcGR7aZZQxwwEDKm-16" target="v3nuLcGR7aZZQxwwEDKm-19">
          <mxGeometry relative="1" as="geometry" />
        </mxCell>
        <mxCell id="v3nuLcGR7aZZQxwwEDKm-16" value="Controller" style="ellipse;whiteSpace=wrap;html=1;" vertex="1" parent="1">
          <mxGeometry x="450" y="840" width="120" height="80" as="geometry" />
        </mxCell>
        <mxCell id="v3nuLcGR7aZZQxwwEDKm-25" style="edgeStyle=orthogonalEdgeStyle;rounded=0;orthogonalLoop=1;jettySize=auto;html=1;exitX=1;exitY=0.5;exitDx=0;exitDy=0;entryX=0;entryY=0;entryDx=0;entryDy=0;" edge="1" parent="1" source="v3nuLcGR7aZZQxwwEDKm-17" target="v3nuLcGR7aZZQxwwEDKm-16">
          <mxGeometry relative="1" as="geometry" />
        </mxCell>
        <mxCell id="v3nuLcGR7aZZQxwwEDKm-17" value="ReadData" style="ellipse;whiteSpace=wrap;html=1;" vertex="1" parent="1">
          <mxGeometry x="220" y="760" width="120" height="80" as="geometry" />
        </mxCell>
        <mxCell id="v3nuLcGR7aZZQxwwEDKm-23" style="edgeStyle=orthogonalEdgeStyle;rounded=0;orthogonalLoop=1;jettySize=auto;html=1;exitX=0;exitY=0.5;exitDx=0;exitDy=0;entryX=1;entryY=0.5;entryDx=0;entryDy=0;" edge="1" parent="1" source="v3nuLcGR7aZZQxwwEDKm-19" target="v3nuLcGR7aZZQxwwEDKm-16">
          <mxGeometry relative="1" as="geometry" />
        </mxCell>
        <mxCell id="v3nuLcGR7aZZQxwwEDKm-19" value="Website" style="ellipse;whiteSpace=wrap;html=1;" vertex="1" parent="1">
          <mxGeometry x="670" y="840" width="120" height="80" as="geometry" />
        </mxCell>
        <mxCell id="v3nuLcGR7aZZQxwwEDKm-20" value="EditData" style="ellipse;whiteSpace=wrap;html=1;" vertex="1" parent="1">
          <mxGeometry x="220" y="920" width="120" height="80" as="geometry" />
        </mxCell>
        <mxCell id="v3nuLcGR7aZZQxwwEDKm-21" style="edgeStyle=orthogonalEdgeStyle;rounded=0;orthogonalLoop=1;jettySize=auto;html=1;exitX=0;exitY=0.5;exitDx=0;exitDy=0;entryX=1;entryY=0.5;entryDx=0;entryDy=0;entryPerimeter=0;" edge="1" parent="1" source="v3nuLcGR7aZZQxwwEDKm-16" target="v3nuLcGR7aZZQxwwEDKm-20">
          <mxGeometry relative="1" as="geometry">
            <mxPoint x="380" y="950" as="targetPoint" />
          </mxGeometry>
        </mxCell>
        <mxCell id="v3nuLcGR7aZZQxwwEDKm-26" value="Databse" style="ellipse;whiteSpace=wrap;html=1;" vertex="1" parent="1">
          <mxGeometry x="20" y="840" width="120" height="80" as="geometry" />
        </mxCell>
        <mxCell id="v3nuLcGR7aZZQxwwEDKm-29" style="edgeStyle=orthogonalEdgeStyle;rounded=0;orthogonalLoop=1;jettySize=auto;html=1;exitX=0;exitY=0.5;exitDx=0;exitDy=0;entryX=0.833;entryY=0.875;entryDx=0;entryDy=0;entryPerimeter=0;" edge="1" parent="1" source="v3nuLcGR7aZZQxwwEDKm-20" target="v3nuLcGR7aZZQxwwEDKm-26">
          <mxGeometry relative="1" as="geometry" />
        </mxCell>
        <mxCell id="v3nuLcGR7aZZQxwwEDKm-30" style="edgeStyle=orthogonalEdgeStyle;rounded=0;orthogonalLoop=1;jettySize=auto;html=1;exitX=1;exitY=0;exitDx=0;exitDy=0;entryX=0;entryY=0.5;entryDx=0;entryDy=0;entryPerimeter=0;" edge="1" parent="1" source="v3nuLcGR7aZZQxwwEDKm-26" target="v3nuLcGR7aZZQxwwEDKm-17">
          <mxGeometry relative="1" as="geometry" />
        </mxCell>
      </root>
    </mxGraphModel>
  </diagram>
</mxfile>
